<svg width="339" height="89" viewBox="0 0 339 89" fill="none" xmlns="http://www.w3.org/2000/svg">
<path fill-rule="evenodd" clip-rule="evenodd" d="M309.976 45.6226C309.902 45.6079 309.828 45.5931 309.739 45.5931C309.787 45.4897 309.834 45.3866 309.882 45.2838C310.484 43.9771 311.072 42.7027 311.457 41.2254C312.108 39.8089 312.641 38.5694 313.115 37.448C313.589 36.3265 313.945 35.3232 314.241 34.4378C314.537 33.5525 314.655 32.8442 314.655 32.372C314.655 31.8408 314.596 31.4276 314.418 31.1325C314.3 30.7784 314.063 30.5423 313.885 30.3652C313.648 30.1882 313.411 30.0701 313.174 30.0111C312.938 29.9521 312.701 29.893 312.523 29.893C311.812 29.893 311.042 30.2472 310.213 31.0145C309.384 31.7818 308.495 32.7852 307.547 34.0837C306.6 35.3232 305.652 36.7987 304.645 38.4514C303.858 39.7433 303.107 41.0712 302.335 42.4353C302.12 42.8161 301.903 43.1998 301.683 43.5864L290.192 64.5395C289.896 65.1297 289.718 65.6609 289.541 66.3102C289.363 66.9594 289.304 67.5496 289.304 68.1399C289.304 68.553 289.363 68.9662 289.481 69.4384C289.6 69.9105 289.777 70.3237 290.074 70.7369C290.311 71.091 290.725 71.4451 291.258 71.6812C291.791 71.9764 292.443 72.0944 293.272 72.0944C294.279 72.0944 295.227 71.7403 296.056 71.032C296.945 70.3237 297.715 69.3793 298.485 68.1989C299.255 67.0184 299.906 65.6609 300.558 64.1853C300.854 63.4181 301.15 62.6655 301.446 61.913C301.743 61.1605 302.039 60.4079 302.335 59.6406C302.927 58.106 303.46 56.6304 303.934 55.2138C304.408 53.7973 304.882 52.5578 305.356 51.4954C306.185 54.2105 307.133 56.7485 308.199 59.1684C309.265 61.5883 310.45 63.7131 311.753 65.5429C313.056 67.3726 314.478 68.7891 316.077 69.8515C317.676 70.9139 319.394 71.4451 321.289 71.4451C323.599 71.4451 326.028 70.9139 328.575 69.7335C331.181 68.612 333.788 66.7823 336.453 64.2444C337.401 63.359 338.052 62.5327 338.408 61.7654C338.822 60.9981 339 60.2898 339 59.6996C339 59.0503 338.822 58.5782 338.467 58.224C338.112 57.8699 337.697 57.6928 337.164 57.6928C336.335 57.6928 335.564 58.165 334.735 59.0503C333.906 60.2308 332.899 61.2342 331.714 62.0605C330.707 62.8278 329.464 63.4771 327.983 64.1263C326.502 64.7756 324.784 65.0707 322.889 65.0707H322.356C322.273 65.0707 322.191 65.058 322.102 65.0443C322 65.0286 321.89 65.0116 321.763 65.0116C320.697 64.9526 319.749 64.4214 318.802 63.4771C317.854 62.5327 317.025 61.3522 316.255 59.9947C315.485 58.6372 314.833 57.2206 314.3 55.686C313.767 54.2105 313.411 52.853 313.174 51.6135C314.833 51.3184 316.551 50.8462 318.328 50.1969C320.105 49.5477 321.822 48.7804 323.54 47.836C325.258 46.8916 326.857 45.8292 328.338 44.6488C329.819 43.4683 331.122 42.1108 332.247 40.6942C333.373 39.2777 334.261 37.7431 334.913 36.0905C335.565 34.4378 335.92 32.7262 335.92 30.8964C335.92 28.1814 335.328 25.8205 334.261 23.8137C333.195 21.8069 331.714 20.1543 329.819 18.7968C327.923 17.4392 325.791 16.4358 323.363 15.7866C320.934 15.1373 318.387 14.7832 315.721 14.7832C312.997 14.7832 310.45 15.0783 308.021 15.6095C305.593 16.1997 303.342 16.908 301.328 17.8524C299.314 18.7968 297.478 19.8592 295.819 21.0396C294.161 22.2201 292.798 23.4596 291.673 24.7581C290.548 26.0566 289.659 27.3551 289.067 28.6536C288.474 29.9521 288.178 31.1325 288.178 32.254C288.178 33.4344 288.474 34.3788 289.126 35.028C289.777 35.6773 290.725 36.0314 292.028 36.0314C292.976 36.0314 293.805 35.7953 294.457 35.3822C295.108 34.969 295.701 34.3788 296.234 33.6705C296.767 32.9622 297.3 32.1359 297.774 31.2506C298.248 30.3652 298.84 29.4209 299.432 28.4765C300.025 27.5321 300.795 26.5878 301.624 25.7024C302.513 24.7581 303.52 23.9908 304.763 23.2825C305.948 22.5742 307.429 21.984 309.147 21.5708C310.864 21.1577 312.878 20.9216 315.248 20.9216C317.38 20.9216 319.157 21.1577 320.697 21.6298C322.178 22.1611 323.481 22.8103 324.429 23.6366C325.376 24.463 326.087 25.4073 326.561 26.5287C327.035 27.6502 327.272 28.8306 327.272 30.0701C327.272 31.8408 326.857 33.6115 325.969 35.4412C325.139 37.2709 323.896 38.9826 322.415 40.4581C320.934 41.9927 319.157 43.2322 317.143 44.1766C315.129 45.18 312.997 45.6522 310.746 45.6522H310.213C310.124 45.6522 310.05 45.6374 309.976 45.6226ZM273.856 60.2243L273.856 60.2248L273.856 60.2252C273.752 60.6132 273.634 61.0555 273.548 61.5292L273.518 61.6914C273.41 62.2775 273.311 62.8182 273.311 63.3589C273.311 63.8901 273.37 64.3033 273.548 64.6574C273.725 65.0115 274.022 65.1886 274.555 65.1886C275.266 65.1886 276.095 64.9525 277.043 64.4213C277.99 63.8901 279.056 63.2408 280.182 62.4145C281.088 61.7495 281.993 60.9699 282.961 60.1371L282.963 60.135C283.197 59.9336 283.435 59.7291 283.677 59.5224L283.677 59.5222C284.861 58.4009 286.046 57.2795 287.231 56.0991C288.415 54.9186 289.541 53.7382 290.607 52.5577C291.673 51.3772 292.621 50.2558 293.45 49.1934L294.872 54.3874C293.154 56.6893 291.377 58.8732 289.6 60.939C287.764 63.0638 285.927 64.8935 284.032 66.4871C282.137 68.0807 280.241 69.3792 278.346 70.3236C276.45 71.268 274.555 71.7401 272.719 71.7401C271.652 71.7401 270.705 71.5631 269.935 71.2089C269.165 70.8548 268.572 70.3826 268.098 69.7924C267.625 69.2022 267.269 68.4939 267.091 67.6676C266.855 66.9003 266.736 66.0149 266.736 65.1886C266.736 64.8345 266.736 64.3623 266.795 63.772C266.795 63.2108 266.84 62.6936 266.89 62.1061C266.894 62.0546 266.899 62.0026 266.903 61.95C266.907 61.9085 266.91 61.8666 266.914 61.8243C266.943 61.5078 266.957 61.2053 266.972 60.91C266.987 60.5996 267.002 60.2971 267.032 59.9946C267.091 59.4634 267.091 59.1093 267.091 58.9322L253.231 59.7585L246.775 59.8175C245.708 62.1784 244.583 64.2442 243.517 66.074C243.043 66.8413 242.569 67.6085 242.036 68.3758C241.561 69.059 241.087 69.6485 240.654 70.1861L240.496 70.3826C239.963 70.9728 239.43 71.445 238.956 71.7992C238.423 72.1533 237.949 72.3304 237.416 72.3304C236.646 72.3304 235.994 72.2123 235.52 71.9762C235.047 71.7402 234.632 71.445 234.336 71.0909C234.04 70.7368 233.862 70.3236 233.743 69.9104C233.625 69.4973 233.566 69.0841 233.566 68.671C233.566 68.0217 233.684 67.3134 233.862 66.6642C234.04 66.0149 234.276 65.3657 234.632 64.7754L239.785 56.1581C240.022 55.804 240.496 54.9186 241.207 53.5611C241.918 52.2036 242.865 50.4919 243.991 48.4851C245.116 46.4783 246.419 44.2355 247.9 41.8155C249.381 39.3956 250.98 36.9166 252.698 34.4377C254.416 31.9587 256.252 29.5388 258.207 27.1779C260.161 24.817 262.116 22.7512 264.189 20.9214C266.203 19.0917 268.276 17.6162 270.349 16.5538C272.422 15.4323 274.496 14.9011 276.569 14.9011C278.464 14.9011 280.36 15.4913 282.255 16.6718C284.15 17.8523 285.868 19.8 287.586 22.5151C287.764 22.8692 287.882 23.1643 287.882 23.4594C287.882 23.8136 287.764 24.1087 287.586 24.4628C287.408 24.817 287.171 25.1121 286.875 25.3482C286.579 25.5843 286.224 25.8203 285.868 25.9974C285.513 26.1745 285.098 26.2335 284.743 26.2335C284.269 26.2335 283.736 26.1155 283.143 25.9384C282.551 25.7023 281.959 25.2891 281.426 24.6399C280.596 23.6955 279.767 23.0463 278.938 22.5741C278.049 22.1609 277.22 21.9248 276.332 21.9248C275.088 21.9248 273.844 22.279 272.6 22.9282C271.297 23.6365 270.053 24.5218 268.75 25.7023C267.447 26.8828 266.203 28.2403 264.9 29.7749C263.656 31.3095 262.412 32.9621 261.168 34.6738C259.984 36.3854 258.799 38.1561 257.673 39.9268C256.548 41.6975 255.482 43.4092 254.534 45.0618C254.056 45.8466 253.604 46.5914 253.173 47.3027C252.697 48.0892 252.245 48.8347 251.809 49.5476L251.54 49.9891C250.824 51.1619 250.198 52.1894 249.618 53.0299H256.726L268.75 52.1446C268.822 51.9836 268.899 51.8064 268.983 51.613C269.177 51.1679 269.409 50.6368 269.698 50.0197C270.046 49.2766 270.394 48.4504 270.777 47.541L270.777 47.5408C270.85 47.3667 270.925 47.1897 271.001 47.0096C271.475 45.8881 272.008 44.7077 272.6 43.4092C272.896 42.7598 273.178 42.1105 273.459 41.4612C273.74 40.812 274.022 40.1628 274.318 39.5137L274.318 39.5128C274.91 38.2146 275.503 36.9164 276.036 35.6181C276.628 34.3196 277.161 33.1392 277.635 32.0768C277.99 31.0734 278.464 30.3651 279.116 29.9519C279.767 29.5388 280.478 29.3027 281.248 29.3027C281.663 29.3027 282.018 29.3617 282.433 29.4798C282.847 29.5978 283.203 29.7749 283.499 30.011C283.795 30.2471 284.091 30.5422 284.269 30.9553C284.506 31.3095 284.565 31.7817 284.624 32.3129C284.624 32.785 284.387 33.6704 283.973 34.8508C283.558 36.0313 283.025 37.4478 282.314 39.0415C281.663 40.6351 280.893 42.4058 280.063 44.2945C279.722 45.0727 279.39 45.851 279.06 46.6251L279.059 46.6273L279.059 46.6278C278.589 47.7315 278.122 48.8268 277.635 49.9017C277.37 50.5509 277.105 51.1863 276.846 51.81L276.845 51.8106C276.349 53.0012 275.871 54.1497 275.443 55.2728C274.792 57.0434 274.318 58.519 273.962 59.8175C273.93 59.9449 273.894 60.0809 273.856 60.2243ZM123.215 53.9152C123.807 52.4397 124.4 51.0821 124.874 50.0197C125.142 50.0643 125.402 50.1004 125.647 50.1345L125.647 50.1345C126.051 50.1907 126.415 50.2413 126.71 50.3148C127.421 50.3738 128.131 50.3738 128.783 50.3738C131.982 50.3738 135.062 49.9607 137.964 49.1344C140.866 48.308 143.413 47.1866 145.664 45.652C147.915 44.1174 149.692 42.2877 150.995 40.1039C152.298 37.92 152.95 35.4411 152.95 32.726C152.95 29.7749 152.417 27.1778 151.291 24.935C150.166 22.6921 148.685 20.8624 146.849 19.3868C144.954 17.9113 142.88 16.7898 140.452 16.0815C138.023 15.3142 135.536 14.9601 132.929 14.9601C130.145 14.9601 127.48 15.2552 124.992 15.8455C122.504 16.4357 120.194 17.262 118.062 18.2654C115.93 19.2688 114.034 20.4492 112.316 21.7477C110.658 23.0462 109.177 24.4038 107.992 25.8203C106.808 27.2369 105.86 28.6534 105.208 30.07C104.557 31.4865 104.261 32.785 104.261 33.9655C104.261 35.1459 104.557 36.0903 105.149 36.7396C105.801 37.3888 106.748 37.6839 107.992 37.6839C108.999 37.6839 109.829 37.4478 110.48 36.9756C111.191 36.5035 111.783 35.8542 112.316 35.0869C112.849 34.3196 113.383 33.4343 113.856 32.4309L113.857 32.4306L113.857 32.4306C114.39 31.4273 114.923 30.424 115.574 29.3617C116.226 28.2993 116.996 27.2959 117.884 26.2925C118.773 25.2891 119.898 24.4038 121.201 23.6365C122.564 22.8692 124.104 22.2199 125.94 21.7477C127.776 21.2756 129.968 21.0395 132.515 21.0395C134.41 21.0395 136.069 21.3346 137.49 21.9838C138.912 22.5741 140.156 23.4594 141.103 24.5218C142.11 25.5842 142.821 26.8237 143.354 28.2403C143.887 29.6568 144.124 31.1324 144.124 32.667C144.124 34.4377 143.65 35.9723 142.703 37.3298C141.755 38.6873 140.511 39.8087 138.912 40.7531C137.313 41.6975 135.536 42.4058 133.581 42.937C131.626 43.4682 129.612 43.7633 127.598 43.9404C128.783 41.6385 129.612 39.8088 130.027 38.3332C130.442 36.8576 130.678 35.7362 130.678 34.9098C130.678 34.0245 130.501 33.4343 130.086 33.1392C129.672 32.844 129.257 32.667 128.783 32.667C128.61 32.667 128.404 32.6986 128.144 32.7387L128.144 32.7387L128.144 32.7387L128.144 32.7388L128.144 32.7388C128.048 32.7535 127.946 32.7692 127.835 32.785C127.421 32.9031 127.006 33.0801 126.473 33.3752C125.94 33.6704 125.407 34.1426 124.814 34.7918C124.222 35.4411 123.63 36.3264 122.978 37.4478L108.052 64.8345C107.755 65.3657 107.518 65.9559 107.341 66.6051C107.163 67.2544 107.045 67.8446 107.045 68.4939C107.045 68.907 107.104 69.3202 107.222 69.7924C107.341 70.2646 107.518 70.6777 107.815 71.0319C108.052 71.445 108.466 71.7401 108.999 71.9762C109.532 72.2123 110.184 72.3304 111.013 72.3304C112.02 72.3304 112.909 71.9762 113.856 71.1499C114.745 70.3236 115.633 69.3202 116.522 68.0217C117.41 66.7232 118.24 65.3066 119.01 63.654C119.839 62.0014 120.55 60.3487 121.26 58.6961C121.971 57.0434 122.623 55.4498 123.215 53.9152ZM167.817 43.0549C166.692 42.7598 165.626 42.6418 164.619 42.6418C162.309 42.6418 160.236 43.0549 158.518 43.7632C156.682 44.4715 155.023 45.4748 153.542 46.6553C152.061 47.8358 150.818 49.1933 149.751 50.7279C148.685 52.2625 147.856 53.7971 147.145 55.3317C146.434 56.8663 145.96 58.3418 145.605 59.8174C145.25 61.234 145.072 62.4734 145.072 63.5358C145.072 65.0704 145.368 66.3689 145.96 67.4313C146.553 68.4938 147.264 69.3791 148.152 70.0284C148.981 70.6776 149.929 71.1498 150.877 71.4449C151.825 71.74 152.713 71.8581 153.424 71.8581C155.378 71.8581 157.155 71.622 158.873 71.1498C160.532 70.6776 162.131 69.9693 163.612 69.143C165.033 68.3167 166.396 67.2543 167.58 66.0738C168.765 64.8934 169.831 63.5949 170.779 62.1193C171.431 62.5915 172.082 62.8866 172.734 63.1227C173.385 63.2998 174.037 63.4178 174.688 63.4178C175.695 63.4178 176.643 63.1227 177.65 62.5915C177.797 62.5053 177.943 62.4178 178.087 62.3289C177.835 62.7428 177.709 63.1966 177.709 63.7132V63.7133C177.709 63.8903 177.709 64.0084 177.768 64.2444C178.065 65.6019 178.598 66.7824 179.368 67.7267C180.138 68.6711 181.026 69.4384 182.093 70.0877C183.159 70.6779 184.284 71.1501 185.587 71.4452C186.831 71.7403 188.134 71.9174 189.497 71.9174C191.274 71.9174 193.051 71.6813 194.828 71.2681C196.605 70.7959 198.145 70.2057 199.507 69.3794C200.869 68.5531 201.995 67.5497 202.824 66.3692C203.653 65.2478 204.068 63.8903 204.068 62.4147C204.068 61.2342 203.831 60.0538 203.357 58.8143C202.883 57.5748 202.232 56.3943 201.343 55.2139C200.455 54.0334 199.388 52.912 198.145 51.8496C196.901 50.7872 195.479 49.8428 193.88 49.0165C194.235 48.7804 194.65 48.4263 194.946 48.1311C195.301 47.836 195.657 47.4819 195.953 47.1868C196.249 46.8917 196.486 46.5966 196.664 46.2424C196.841 45.8883 196.96 45.5341 196.96 45.18C196.96 44.9439 196.841 44.6488 196.664 44.3537C196.486 44.0586 196.249 43.7635 195.894 43.5274C195.538 43.2913 195.124 43.1142 194.65 42.9371C194.176 42.7601 193.643 42.701 193.051 42.701C192.281 42.701 191.51 42.8781 190.8 43.1732C190.089 43.4683 189.437 43.8815 188.786 44.3537C188.134 44.8259 187.542 45.3571 187.009 45.9473C186.476 46.4785 186.002 47.0687 185.587 47.5999C185.41 47.777 185.35 48.0131 185.35 48.3082C185.35 48.611 185.48 48.9569 185.666 49.2722C185.416 49.5738 185.113 49.9017 184.758 50.2557C184.225 50.8459 183.692 51.3771 183.04 52.0263L183.04 52.0264C182.439 52.6254 181.838 53.1741 181.19 53.7653L181.026 53.9151L181.026 53.9153C180.315 54.5055 179.605 55.0956 178.894 55.5678C178.183 56.0399 177.472 56.4531 176.821 56.7482C176.11 57.0433 175.518 57.2204 174.985 57.2204C174.629 57.2204 174.274 57.1614 173.918 57.0433C173.563 56.9253 173.267 56.6892 173.03 56.3941C173.444 55.3317 173.741 54.2693 173.978 53.2659C174.155 52.2625 174.274 51.3771 174.274 50.6098C174.274 49.1343 173.978 47.8358 173.326 46.8324C172.734 45.77 171.904 45.0027 170.957 44.3534C170.009 43.7632 168.943 43.291 167.817 43.0549ZM180.079 61.1162C179.994 61.1162 179.91 61.1209 179.826 61.1307C180.052 60.9552 180.274 60.7735 180.493 60.5847C181.382 59.8174 182.211 58.9911 183.04 58.1057C183.325 57.8005 183.601 57.4953 183.869 57.199L183.869 57.1988L183.87 57.1987C184.327 56.6929 184.762 56.2132 185.173 55.8038C186.298 54.8595 187.009 53.9151 187.423 53.0298C187.746 52.3866 187.925 51.7435 187.989 51.1838C188.654 51.6109 189.321 52.046 189.97 52.4988C191.214 53.3252 192.281 54.2105 193.228 55.1549C194.176 56.0992 194.946 57.1026 195.538 58.2241C196.131 59.3455 196.427 60.585 196.427 61.8835C196.427 62.5918 196.249 63.241 195.894 63.7722C195.598 64.3034 195.124 64.7756 194.531 65.0707C193.939 65.3658 193.287 65.6019 192.517 65.779C191.807 65.9561 190.977 66.0151 190.148 66.0151C189.319 66.0151 188.49 65.897 187.66 65.72C186.831 65.5429 186.061 65.2478 185.291 64.8937C184.521 64.5395 183.81 64.1264 183.218 63.6542C182.626 63.182 182.152 62.6508 181.796 62.0015C181.619 61.6474 181.382 61.4113 181.026 61.2933C180.671 61.1752 180.375 61.1162 180.079 61.1162ZM159.051 50.3737C160.236 49.7835 161.361 49.4884 162.605 49.4884C163.375 49.4884 164.026 49.6655 164.5 49.9606C164.974 50.2557 165.33 50.6098 165.566 51.082C165.803 51.5542 165.981 52.0854 166.04 52.6166L166.04 52.6169C166.1 53.148 166.159 53.6791 166.159 54.2102C166.159 55.5087 165.922 56.8072 165.389 58.1057C164.856 59.4042 164.145 60.5847 163.256 61.5881C162.368 62.5915 161.361 63.4178 160.236 64.067C159.11 64.7163 157.925 65.0114 156.741 65.0114C155.912 65.0114 155.319 64.8343 154.845 64.4802C154.371 64.1851 154.016 63.7719 153.779 63.2407C153.542 62.7095 153.365 62.1783 153.305 61.5881L153.287 61.4112L153.287 61.411C153.235 60.8911 153.187 60.4189 153.187 59.9945C153.187 58.696 153.424 57.3975 153.957 56.158C154.49 54.9185 155.142 53.7971 156.03 52.7937C156.919 51.7903 157.925 50.964 159.051 50.3737ZM219.163 51.1913C219.479 50.5752 219.799 49.9501 220.12 49.3116H236.29C236.942 49.2526 237.534 49.1936 237.949 49.0165C238.364 48.8394 238.719 48.6624 238.956 48.4263C239.252 48.1902 239.371 47.9541 239.489 47.659C239.548 47.3639 239.607 47.0687 239.607 46.7736C239.607 46.1834 239.548 45.7702 239.311 45.4161C239.074 45.062 238.778 44.7668 238.423 44.5898C238.008 44.3537 237.594 44.2356 237.06 44.1766C236.527 44.1176 235.994 44.0586 235.343 44.0586H222.608C223.555 42.2289 224.503 40.4582 225.392 38.8055C225.673 38.3248 225.927 37.844 226.191 37.3448C226.316 37.1085 226.443 36.8682 226.576 36.6217C226.724 36.3482 226.872 36.0823 227.017 35.8211C227.279 35.3495 227.532 34.8937 227.761 34.4378C228.116 33.7296 228.472 33.0803 228.827 32.4901C229.123 31.8408 229.419 31.3096 229.656 30.8965C230.012 30.2472 230.308 29.657 230.545 29.1258C230.782 28.6536 230.9 28.1224 230.9 27.6502C230.9 26.7058 230.604 25.9976 229.953 25.5844C229.301 25.1122 228.59 24.9352 227.82 24.9352C226.991 24.9352 226.221 25.1713 225.451 25.5844C224.681 25.9976 224.029 26.7058 223.496 27.7092L215.263 43.9995H211.057C210.465 43.9995 209.932 44.1176 209.458 44.3537C208.984 44.5898 208.569 44.8849 208.273 45.18C207.977 45.5341 207.74 45.8883 207.563 46.2424C207.385 46.5966 207.326 46.9507 207.326 47.1868C207.326 47.777 207.622 48.3082 208.155 48.7804C208.747 49.2526 209.695 49.4887 211.176 49.4887H212.716C212.36 50.2263 211.99 50.9638 211.613 51.7162L211.613 51.7167C211.235 52.4692 210.85 53.2366 210.465 54.0334L208.155 58.8143C207.622 59.9357 207.089 61.1752 206.674 62.5918C206.259 63.9493 206.022 65.3068 206.022 66.6053C206.022 67.3726 206.141 68.0219 206.319 68.6711C206.496 69.2614 206.733 69.8516 207.207 70.3238C207.681 70.796 208.214 71.1501 208.925 71.4452C209.636 71.7403 210.465 71.8584 211.531 71.8584C213.13 71.8584 214.73 71.5633 216.388 70.914C218.047 70.3238 219.705 69.4975 221.423 68.435C223.141 67.3726 224.859 66.1331 226.576 64.7756C228.353 63.3591 230.012 61.9425 231.73 60.4079C232.44 59.8177 232.973 59.2275 233.27 58.5782C233.566 57.929 233.684 57.3387 233.684 56.7485C233.684 56.1583 233.566 55.6861 233.27 55.2729C233.033 54.8598 232.618 54.6827 232.203 54.6827C231.848 54.6827 231.433 54.8008 231.019 55.0959C230.308 55.7451 229.479 56.4534 228.531 57.1617C227.583 57.929 226.576 58.6963 225.569 59.4045C224.562 60.1128 223.496 60.8211 222.43 61.5294C221.364 62.2376 220.357 62.8279 219.409 63.3591C218.461 63.8903 217.573 64.3624 216.744 64.6576C215.914 64.9527 215.204 65.1298 214.67 65.1298C214.315 65.1298 214.019 65.0707 213.841 64.8346C213.664 64.6576 213.604 64.3625 213.604 64.0083C213.604 63.3591 213.782 62.6508 214.078 61.8245C214.374 60.9982 214.67 60.2899 214.967 59.6406C215.737 58.165 216.566 56.5124 217.395 54.7417C217.944 53.5696 218.545 52.3976 219.163 51.1913Z" fill="white"/>
<path fill-rule="evenodd" clip-rule="evenodd" d="M44.1791 88.3925C68.5786 88.3925 88.3582 68.6052 88.3582 44.1963C88.3582 19.7873 68.5786 0 44.1791 0C19.7797 0 0 19.7873 0 44.1963C0 68.6052 19.7797 88.3925 44.1791 88.3925ZM33.1343 24.8604C22.9367 24.8604 13.9688 30.1273 8.80042 38.0902C11.6983 21.1664 26.4352 8.2868 44.1791 8.2868C64.0037 8.2868 80.0746 24.364 80.0746 44.1963C80.0746 63.5682 64.7411 79.3574 45.5534 80.0799C55.3519 75.4263 62.1269 65.4367 62.1269 53.8642C62.1269 37.8459 49.1465 24.8604 33.1343 24.8604ZM35.6903 33.3034C32.454 35.8311 30.3731 39.7706 30.3731 44.1963C30.3731 51.8241 36.5543 58.0076 44.1791 58.0076C47.9414 58.0076 51.3522 56.5021 53.8424 54.0605C53.7371 65.4118 44.5061 74.5812 33.1343 74.5812C21.6971 74.5812 12.4254 65.3059 12.4254 53.8642C12.4254 42.4225 21.6971 33.1472 33.1343 33.1472C33.9997 33.1472 34.8528 33.2003 35.6903 33.3034ZM49.7015 44.1963C49.7015 47.2474 47.229 49.7208 44.1791 49.7208C41.1292 49.7208 38.6567 47.2474 38.6567 44.1963C38.6567 41.1452 41.1292 38.6718 44.1791 38.6718C47.229 38.6718 49.7015 41.1452 49.7015 44.1963Z" fill="white"/>
</svg>
