<svg width="1465" height="125" viewBox="0 0 1465 125" fill="none" xmlns="http://www.w3.org/2000/svg">
<g style="mix-blend-mode:overlay">
<path d="M90.6766 42.975C83.6305 34.3746 74.9265 30.0744 64.5646 30.0744C60.0053 30.0744 55.757 30.9033 51.8194 32.5613C47.9855 34.2192 44.6697 36.4988 41.872 39.4001C39.0743 42.1978 36.8465 45.5654 35.1886 49.503C33.6343 53.4405 32.8571 57.6889 32.8571 62.2481C32.8571 66.911 33.6343 71.2112 35.1886 75.1487C36.8465 79.0862 39.0743 82.5056 41.872 85.407C44.7733 88.3083 48.141 90.5879 51.9749 92.2458C55.8088 93.9037 59.9535 94.7327 64.4091 94.7327C74.1493 94.7327 82.9051 90.5879 90.6766 82.2984V118.358L87.568 119.446C82.9051 121.104 78.5531 122.295 74.512 123.021C70.4709 123.85 66.4815 124.264 62.544 124.264C54.4617 124.264 46.6903 122.762 39.2297 119.757C31.8728 116.648 25.3448 112.348 19.6457 106.856C14.0503 101.261 9.54286 94.6809 6.12344 87.1167C2.70401 79.4489 0.994293 71.1075 0.994293 62.0927C0.994293 53.0778 2.6522 44.8401 5.96801 37.3795C9.38744 29.8154 13.8949 23.3392 19.4903 17.951C25.1893 12.4592 31.7692 8.21078 39.2297 5.20582C46.6903 2.09725 54.5135 0.542969 62.6994 0.542969C67.3623 0.542969 71.9215 1.06106 76.3772 2.09725C80.9364 3.02982 85.7029 4.5323 90.6766 6.60468V42.975Z" fill="white"/>
<path d="M153.739 62.4035C153.739 67.0664 154.62 71.3666 156.382 75.3041C158.143 79.2416 160.526 82.6611 163.531 85.5624C166.536 88.4637 170.007 90.7433 173.945 92.4013C177.986 93.9555 182.235 94.7327 186.69 94.7327C191.146 94.7327 195.342 93.9555 199.28 92.4013C203.321 90.7433 206.844 88.4637 209.849 85.5624C212.958 82.6611 215.393 79.2416 217.154 75.3041C218.916 71.3666 219.796 67.0664 219.796 62.4035C219.796 57.7407 218.916 53.4405 217.154 49.503C215.393 45.5654 212.958 42.146 209.849 39.2447C206.844 36.3433 203.321 34.1155 199.28 32.5613C195.342 30.9033 191.146 30.0744 186.69 30.0744C182.235 30.0744 177.986 30.9033 173.945 32.5613C170.007 34.1155 166.536 36.3433 163.531 39.2447C160.526 42.146 158.143 45.5654 156.382 49.503C154.62 53.4405 153.739 57.7407 153.739 62.4035ZM121.876 62.4035C121.876 53.6995 123.483 45.6173 126.695 38.1567C129.907 30.5925 134.363 24.0127 140.062 18.4173C145.761 12.8218 152.548 8.46983 160.423 5.36126C168.401 2.14907 177.157 0.542969 186.69 0.542969C196.119 0.542969 204.823 2.14907 212.802 5.36126C220.781 8.46983 227.62 12.8218 233.319 18.4173C239.121 24.0127 243.629 30.5925 246.841 38.1567C250.053 45.6173 251.659 53.6995 251.659 62.4035C251.659 71.1075 250.053 79.2416 246.841 86.8058C243.629 94.2664 239.121 100.794 233.319 106.39C227.62 111.985 220.781 116.389 212.802 119.601C204.823 122.71 196.119 124.264 186.69 124.264C177.157 124.264 168.401 122.71 160.423 119.601C152.548 116.389 145.761 111.985 140.062 106.39C134.363 100.794 129.907 94.2664 126.695 86.8058C123.483 79.2416 121.876 71.1075 121.876 62.4035Z" fill="white"/>
<path d="M281.16 121L301.055 3.80697L331.208 3.80697L354.678 66.2893L377.992 3.80697L408.145 3.80697L428.04 121L397.732 121L387.629 53.5441L359.963 121H347.839L321.572 53.5441L311.469 121L281.16 121Z" fill="white"/>
<path d="M493.345 3.80697V121L462.881 121V3.80697L493.345 3.80697Z" fill="white"/>
<path d="M533.37 121V3.80697L563.834 3.80697L620.099 75.4595V3.80697L650.408 3.80697V121H620.099L563.834 49.3475V121H533.37Z" fill="white"/>
<path d="M749.696 55.4092L810.158 55.4092C810.158 61.6264 809.899 67.2736 809.381 72.351C808.863 77.4283 807.826 82.143 806.272 86.495C804.096 92.6085 801.143 98.0485 797.413 102.815C793.682 107.478 789.279 111.415 784.201 114.628C779.228 117.736 773.736 120.119 767.726 121.777C761.716 123.435 755.395 124.264 748.764 124.264C739.645 124.264 731.304 122.762 723.74 119.757C716.279 116.752 709.855 112.555 704.466 107.167C699.078 101.675 694.882 95.1472 691.877 87.583C688.872 79.9152 687.369 71.4702 687.369 62.2481C687.369 53.1296 688.82 44.7883 691.721 37.2241C694.726 29.5563 698.923 23.0283 704.311 17.6401C709.803 12.2519 716.383 8.05535 724.05 5.05039C731.718 2.04544 740.267 0.542969 749.696 0.542969C761.923 0.542969 772.648 3.18526 781.87 8.46983C791.092 13.7544 798.397 21.9403 803.785 33.0275L774.876 44.9955C772.181 38.5712 768.658 33.9601 764.306 31.1624C760.058 28.3647 755.188 26.9658 749.696 26.9658C745.137 26.9658 740.992 27.8466 737.262 29.6081C733.532 31.266 730.319 33.7011 727.625 36.9133C725.035 40.0218 722.962 43.8039 721.408 48.2595C719.957 52.7152 719.232 57.6889 719.232 63.1807C719.232 68.1544 719.854 72.7654 721.097 77.0138C722.444 81.2622 724.413 84.9407 727.004 88.0492C729.594 91.1578 732.806 93.5929 736.64 95.3544C740.474 97.0123 744.93 97.8412 750.007 97.8412C753.012 97.8412 755.913 97.5304 758.711 96.9087C761.509 96.1834 763.996 95.0953 766.172 93.6447C768.451 92.0904 770.316 90.1216 771.767 87.7384C773.218 85.3552 774.202 82.4538 774.72 79.0344L749.696 79.0344V55.4092Z" fill="white"/>
<path d="M977.667 33.8047C974.351 31.1106 971.036 29.1418 967.72 27.8984C964.404 26.5513 961.192 25.8778 958.083 25.8778C954.146 25.8778 950.934 26.8104 948.447 28.6755C945.96 30.5407 944.716 32.9757 944.716 35.9807C944.716 38.0531 945.338 39.7628 946.582 41.1098C947.825 42.4569 949.431 43.6485 951.4 44.6847C953.472 45.6173 955.752 46.4462 958.239 47.1715C960.829 47.8969 963.368 48.674 965.855 49.503C975.802 52.8188 983.055 57.2744 987.615 62.8698C992.278 68.3616 994.609 75.5632 994.609 84.4744C994.609 90.4843 993.573 95.9243 991.5 100.794C989.532 105.664 986.578 109.861 982.641 113.384C978.807 116.804 974.041 119.446 968.342 121.311C962.746 123.28 956.374 124.264 949.224 124.264C934.406 124.264 920.677 119.86 908.035 111.053L921.091 86.495C925.651 90.5361 930.158 93.5411 934.614 95.5098C939.069 97.4786 943.473 98.463 947.825 98.463C952.799 98.463 956.477 97.3232 958.86 95.0435C961.347 92.7639 962.591 90.1734 962.591 87.2721C962.591 85.5106 962.28 84.0081 961.658 82.7647C961.036 81.4176 960 80.226 958.55 79.1898C957.099 78.05 955.182 77.0138 952.799 76.0813C950.519 75.1487 947.721 74.1125 944.406 72.9727C940.468 71.7293 936.582 70.3822 932.748 68.9315C929.018 67.3773 925.65 65.3567 922.646 62.8698C919.744 60.383 917.361 57.2744 915.496 53.5441C913.734 49.7102 912.854 44.8919 912.854 39.0893C912.854 33.2866 913.786 28.0538 915.651 23.391C917.62 18.6245 920.314 14.5833 923.734 11.2675C927.257 7.84811 931.505 5.20583 936.479 3.34068C941.556 1.47554 947.203 0.542969 953.42 0.542969C959.223 0.542969 965.285 1.37192 971.606 3.02982C977.926 4.58411 983.988 6.91554 989.791 10.0241L977.667 33.8047Z" fill="white"/>
<path d="M1055.92 62.4035C1055.92 67.0664 1056.8 71.3666 1058.57 75.3041C1060.33 79.2416 1062.71 82.6611 1065.72 85.5624C1068.72 88.4637 1072.19 90.7433 1076.13 92.4013C1080.17 93.9555 1084.42 94.7327 1088.87 94.7327C1093.33 94.7327 1097.53 93.9555 1101.46 92.4013C1105.5 90.7433 1109.03 88.4637 1112.03 85.5624C1115.14 82.6611 1117.58 79.2416 1119.34 75.3041C1121.1 71.3666 1121.98 67.0664 1121.98 62.4035C1121.98 57.7407 1121.1 53.4405 1119.34 49.503C1117.58 45.5654 1115.14 42.146 1112.03 39.2447C1109.03 36.3433 1105.5 34.1155 1101.46 32.5613C1097.53 30.9033 1093.33 30.0744 1088.87 30.0744C1084.42 30.0744 1080.17 30.9033 1076.13 32.5613C1072.19 34.1155 1068.72 36.3433 1065.72 39.2447C1062.71 42.146 1060.33 45.5654 1058.57 49.503C1056.8 53.4405 1055.92 57.7407 1055.92 62.4035ZM1024.06 62.4035C1024.06 53.6995 1025.67 45.6173 1028.88 38.1567C1032.09 30.5925 1036.55 24.0127 1042.25 18.4173C1047.94 12.8218 1054.73 8.46983 1062.61 5.36126C1070.59 2.14907 1079.34 0.542969 1088.87 0.542969C1098.3 0.542969 1107.01 2.14907 1114.99 5.36126C1122.96 8.46983 1129.8 12.8218 1135.5 18.4173C1141.31 24.0127 1145.81 30.5925 1149.02 38.1567C1152.24 45.6173 1153.84 53.6995 1153.84 62.4035C1153.84 71.1075 1152.24 79.2416 1149.02 86.8058C1145.81 94.2664 1141.31 100.794 1135.5 106.39C1129.8 111.985 1122.96 116.389 1114.99 119.601C1107.01 122.71 1098.3 124.264 1088.87 124.264C1079.34 124.264 1070.59 122.71 1062.61 119.601C1054.73 116.389 1047.94 111.985 1042.25 106.39C1036.55 100.794 1032.09 94.2664 1028.88 86.8058C1025.67 79.2416 1024.06 71.1075 1024.06 62.4035Z" fill="white"/>
<path d="M1215.21 62.4035C1215.21 67.0664 1216.09 71.3666 1217.85 75.3041C1219.61 79.2416 1221.99 82.6611 1225 85.5624C1228 88.4637 1231.48 90.7433 1235.41 92.4013C1239.45 93.9555 1243.7 94.7327 1248.16 94.7327C1252.61 94.7327 1256.81 93.9555 1260.75 92.4013C1264.79 90.7433 1268.31 88.4637 1271.32 85.5624C1274.43 82.6611 1276.86 79.2416 1278.62 75.3041C1280.38 71.3666 1281.26 67.0664 1281.26 62.4035C1281.26 57.7407 1280.38 53.4405 1278.62 49.503C1276.86 45.5654 1274.43 42.146 1271.32 39.2447C1268.31 36.3433 1264.79 34.1155 1260.75 32.5613C1256.81 30.9033 1252.61 30.0744 1248.16 30.0744C1243.7 30.0744 1239.45 30.9033 1235.41 32.5613C1231.48 34.1155 1228 36.3433 1225 39.2447C1221.99 42.146 1219.61 45.5654 1217.85 49.503C1216.09 53.4405 1215.21 57.7407 1215.21 62.4035ZM1183.34 62.4035C1183.34 53.6995 1184.95 45.6173 1188.16 38.1567C1191.37 30.5925 1195.83 24.0127 1201.53 18.4173C1207.23 12.8218 1214.02 8.46983 1221.89 5.36126C1229.87 2.14907 1238.62 0.542969 1248.16 0.542969C1257.59 0.542969 1266.29 2.14907 1274.27 5.36126C1282.25 8.46983 1289.09 12.8218 1294.79 18.4173C1300.59 24.0127 1305.1 30.5925 1308.31 38.1567C1311.52 45.6173 1313.13 53.6995 1313.13 62.4035C1313.13 71.1075 1311.52 79.2416 1308.31 86.8058C1305.1 94.2664 1300.59 100.794 1294.79 106.39C1289.09 111.985 1282.25 116.389 1274.27 119.601C1266.29 122.71 1257.59 124.264 1248.16 124.264C1238.62 124.264 1229.87 122.71 1221.89 119.601C1214.02 116.389 1207.23 111.985 1201.53 106.39C1195.83 100.794 1191.37 94.2664 1188.16 86.8058C1184.95 79.2416 1183.34 71.1075 1183.34 62.4035Z" fill="white"/>
<path d="M1347.91 121V3.80697L1378.38 3.80697L1434.64 75.4595V3.80697L1464.95 3.80697V121L1434.64 121L1378.38 49.3475V121L1347.91 121Z" fill="white"/>
</g>
</svg>
